<?xml version="1.0" encoding="utf-8"?>
<!-- Generator: Adobe Illustrator 15.0.0, SVG Export Plug-In . SVG Version: 6.00 Build 0)  -->
<!DOCTYPE svg PUBLIC "-//W3C//DTD SVG 1.1//EN" "http://www.w3.org/Graphics/SVG/1.1/DTD/svg11.dtd">
<svg version="1.1" id="Layer_1" xmlns="http://www.w3.org/2000/svg" xmlns:xlink="http://www.w3.org/1999/xlink" x="0px" y="0px"
	 width="60px" height="120px" viewBox="0 0 60 120" enable-background="new 0 0 60 120" xml:space="preserve">
<g>
	<path fill-rule="evenodd" clip-rule="evenodd" d="M12.823,10.061c1.806-0.36,2.389,1.004,3.765,1.153
		C17.609,11.325,18.834,11.084,20,11c1.137-0.083,1.795-0.114,3,0c1.375,0.13,2.963,0.419,4.343,0.303
		c0.823-0.069,1.608-0.479,2.42-0.621c0.871-0.152,1.731-0.178,2.688-0.178c1.755,0,3.342,0.336,5.176,0.621
		c1.678,0.262,3.618,0.097,5.378-0.088c2.72-0.287,5.745-1.505,6.588,1.508C50,14,49.712,19.538,49.391,22.925
		c-0.105,1.116,0.149,2.491,0.135,3.815c-0.024,2.084,0.202,4.205,0.202,6.476c0,1.095-0.13,2.231-0.135,3.37
		c-0.02,4.713-0.661,8.969-0.471,13.22c0.046,1.035,0.194,2.127,0.269,3.193c0.368,5.284,0.367,10.955,0.202,16.768
		c-0.066,2.347,0.148,4.769-0.067,7.009c-0.112,1.166-0.739,2.399-0.807,3.815c-0.103,2.137,0.175,4.659,0.27,7.008
		c0.096,2.394,0.041,4.838,0.134,7.009c0.143,3.338,0.953,11.012-0.269,13.662c-0.211,0.457-0.618,1.01-1.277,1.331
		c-1.289,0.627-2.836,0.144-4.369-0.089c-3.193-0.483-6.305,0.697-9.344,0.178c-1.444-0.247-2.961-0.416-4.571-0.089
		c-1.221,0.248-3.021,0.126-4.503,0.266c-3.191,0.302-6.141,0.027-9.411-0.177c-1.431-0.09-3.648,0.163-4.37-0.533
		c-0.695-0.671-1.019-3.55-1.008-6.032c0.005-1.051,0.263-2.104,0.336-3.193c0.227-3.315-0.105-6.971,0-10.469
		c0.069-2.28-0.207-4.639,0-6.743c0.229-2.323,0.407-4.371,0.27-6.653c-0.138-2.266,0-4.547,0-7.098
		c0-2.454-0.183-4.775-0.067-7.008c0.112-2.189-0.14-4.26-0.135-6.565c0.011-4.159,1.163-6.973,1.075-10.291
		c-0.044-1.698-0.442-2.893-0.537-4.347c-0.064-0.99,0.096-2.114,0.066-3.194c-0.025-1.017-0.212-1.958-0.201-2.75
		c0.014-1.011,0.351-2.019,0.403-3.017c0.234-4.396-0.781-10.06-0.537-15.524C10.815,13.054,10.711,10.482,12.823,10.061z
		 M36.216,38.805c2.14,0.214,6.928,1.236,8.134-0.976c1.183-2.17-0.474-4.737-1.613-5.412c-0.933-0.552-2.519-0.562-3.899-0.798
		c-1.361-0.233-3.327-0.103-3.293-1.598c0.032-1.417,1.995-1.361,3.092-1.419c1.229-0.064,3.454,0.162,3.495-0.887
		c0.056-1.404-3.784-1.15-5.243-1.243c-1.48-0.093-5.613,0.991-5.444-1.508c0.093-1.37,1.298-0.965,3.36-0.965
		c3.196,0,8.184,1.104,9.747-2.052c0.201-0.405,2.449-3.948,0-3.903c-0.725,0.014-0.934,1.159-1.143,1.863
		c-0.592,1.999-1.592,2.129-3.562,1.951c-2.327-0.209-6.044,0.439-7.596-0.443c-1.381-0.784-0.271-5.885-2.219-5.589
		c-1.092,0.167-0.833,1.655-0.94,2.928c-0.204,2.409-0.924,3.104-2.756,3.193c-1.67,0.083-3.402-0.141-4.84-0.089
		c-1.083,0.039-1.921,0.385-2.823,0c-1.191-0.507-1.184-4.031-2.42-3.991c-1.248,0.04-1.217,2.746-0.807,3.903
		c0.491,1.387,2.347,2.689,4.638,2.749c1.068,0.029,1.731-0.316,2.353-0.354c0.71-0.042,1.414,0.103,2.354,0.089
		c1.096-0.015,3.926-0.779,4.032,0.71c0.074,1.023-0.866,1.41-1.613,1.508c-1.312,0.173-2.358-0.15-4.033,0
		c-0.864,0.078-1.851,0.273-2.957,0.355c-1.158,0.085-2.312,0.345-2.219,1.33c0.083,0.867,0.965,0.674,2.017,0.621
		c1.604-0.079,3.823-0.182,3.832,1.242c0.008,1.358-1.96,1.61-3.227,1.774c-1.362,0.177-2.942,0.118-4.033,0.71
		c-0.807,0.438-1.566,1.674-1.748,2.396c-0.177,0.705-0.192,2.271,0.336,3.193c1.272,2.219,4.837,1.527,7.193,1.153
		c0.998-0.158,1.931-0.534,2.621-0.177c1.015,0.523,0.863,1.776,1.479,2.749c0.739,1.168,2.651,2.227,4.303,2.396
		c0.792,0.081,2.817-0.331,2.891,0.887c0.052,0.862-0.915,1.284-1.412,1.686c-0.695,0.562-1.035,1.138-1.814,1.242
		c-1.911,0.256-2.69-2.993-4.773-2.573c-0.735,0.149-1.002,1.119-1.747,1.42c-1.194,0.482-2.612,0.468-4.235,0.71
		c-0.886,0.132-4.394,0.924-4.302,1.952c0.09,1.018,1.962,0.49,2.891,0.354c1.224-0.18,2.037-0.588,3.092-0.71
		c0.744-0.086,1.376-0.07,1.949-0.178c0.649-0.12,1.23-0.368,1.815-0.443c0.88-0.112,2.433-0.06,2.285,1.153
		c-0.163,1.34-4.609,0.725-5.714,0.888c-0.599,0.088-1.041,0.39-1.479,0.443c-1.04,0.128-1.955-0.102-2.688,0.354
		c-1.596,0.992-1.169,3.977,0.201,4.879c1.191,0.785,4.38,0.941,6.117,0.8c1.063-0.088,3.995-0.899,3.832,0.531
		c-0.083,0.717-2.694,0.732-3.765,0.799c-1.488,0.091-2.87-0.121-4.033,0.267c-1.537,0.512-3.445,1.492-3.967,3.017
		c-0.368,1.077-0.735,3.917-0.807,5.145c-0.136,2.374-0.458,7.319,1.144,7.363c1.324,0.037,1.045-2.021,1.21-3.814
		c0.066-0.718,0.24-1.361,0.269-1.862c0.134-2.377-0.426-4.405,0.403-6.123c0.62-1.283,2.124-2.154,3.63-2.306
		c0.613-0.062,1.364,0.066,2.017,0c1.089-0.111,1.952-0.036,2.891-0.097c0.559-0.035,1.12-0.045,1.747,0
		c1.609,0.113,3.255-0.258,4.84-0.258c1.583,0,3.073,0.105,4.639,0.267c0.753,0.076,1.549-0.109,2.285,0
		c2.083,0.308,2.631,2.657,2.286,5.322c-0.369,2.844-2.129,2.847-4.706,2.928c-2.581,0.081-5.657-0.042-8.201,0.177
		c-1.565,0.137-3.043-0.05-4.234,0.09c-0.515,0.059-1.119,0.391-1.747,0.531c-0.508,0.114-1.052,0.08-1.412,0.267
		c-0.567,0.294-1.185,1.382-1.143,2.13c0.112,2.01,2.849,2.665,4.504,2.661c1.146-0.003,3.536-0.587,3.562,1.153
		c0.021,1.418-1.337,1.419-2.756,1.419c-1.397,0-2.635,0.107-3.697,0.178c-1.317,0.086-1.954-0.065-3.563,0
		c-0.752,0.03-2.724,0.16-2.755,1.064c-0.028,0.8,0.675,0.726,1.008,0.799c2.205,0.479,4.398,0.377,6.856,0.272
		c0.689-0.029,4.019-0.777,4.705,0.082c0.481,0.602,0.91,5.066-0.807,5.146c-0.79,0.037-1.605-1.245-1.814-1.509
		c-1.331-1.667-2.523-2.199-4.84-2.217c-1.04-0.009-4.486-0.311-4.235,1.33c0.143,0.93,2.785,0.755,3.63,0.71
		c1.236-0.064,3.324-0.317,3.227,1.242c-0.091,1.453-3.573,0.969-4.504,1.064c-1.36,0.139-4.697-0.089-4.503,1.508
		c0.124,1.027,1.69,0.538,2.756,0.444c0.88-0.078,1.933,0.104,2.486,0.089c0.634-0.018,1.593-0.365,2.555-0.443
		c1.192-0.099,2.47,0.081,3.562,0c0.789-0.061,2.443-0.59,2.487,0.531c0.046,1.154-1.82,1.169-2.688,1.42
		c-2.292,0.66-3.458,1.582-5.108,3.193c-0.755,0.737-1.702,1.459-2.151,2.218c-0.531,0.898-0.923,2.39-1.411,3.727
		c-0.187,0.509-0.416,1.223-0.538,1.862c-0.124,0.651-0.355,1.684,0.134,2.13c1.241-0.134,1.394-2.067,2.018-3.371
		c0.99-2.07,2.949-4.172,4.705-5.855c0.714-0.685,3.868-3.377,5.041-1.597c0.577,0.876,0.078,2.99,0.067,4.259
		c-0.004,0.459,0.106,0.952,0.135,1.686c0.095,2.519-0.396,7.02,1.21,7.008c1.324-0.009,1.105-3.161,1.21-5.057
		c0.055-1.002,0.287-1.852,0.269-2.661c-0.04-1.753-0.87-4.62,0.269-5.589c0.531-0.452,1.942-0.215,2.688,0.176
		c0.603,0.316,1.223,1.032,1.883,1.599c0.675,0.578,1.406,0.982,1.949,1.508c0.785,0.759,1.392,2.104,1.883,3.017
		c0.439,0.82,1.115,1.821,1.411,2.839c0.14,0.479,0.179,1.223,0.336,1.597c0.354,0.845,1.243,1.545,1.883,1.153
		c0.937-0.574-0.148-3.061-0.471-4.081c-0.666-2.104-1.549-3.747-2.555-5.146c-0.947-1.317-2.066-2.842-3.294-3.638
		c-0.816-0.529-1.987-0.687-2.958-1.064c-0.672-0.262-1.792-0.302-2.016-1.508c0.359-0.79,1.564-0.32,2.486-0.267
		c1.433,0.084,3.01-0.133,4.235-0.088c1.172,0.041,5.988,1.078,6.05-0.533c0.062-1.621-3.126-1.363-4.369-1.33
		c-0.937,0.024-1.885-0.161-2.555-0.267c-0.851-0.133-2.022-0.065-2.084-0.887c-0.061-0.814,0.92-1.073,1.277-1.153
		c0.698-0.157,1.338-0.079,2.084-0.089c0.852-0.012,3.549,0.36,3.63-0.71c0.083-1.096-1.19-1.211-1.748-1.242
		c-0.646-0.037-1.362,0.133-2.083,0.177c-0.752,0.048-1.539-0.181-2.22-0.088c-1.038,0.142-2.065,0.852-2.756,1.508
		c-0.809,0.771-1.114,2.311-2.285,2.218c-1.33-0.104-1.417-3.885-0.739-4.879c0.651-0.955,2.782-0.71,4.504-0.71
		c1.912,0,3.74-0.068,4.772,0c0.861,0.058,3.696,0.964,3.765-0.532c0.07-1.534-2.862-0.916-4.437-1.064
		c-0.532-0.05-1.369-0.308-2.017-0.355c-0.975-0.071-2.561,0.245-3.832,0.178c-1.192-0.063-2.834-0.258-2.688-1.686
		c0.123-1.2,1.78-0.976,2.957-0.976c2.856,0,4.575-0.231,7.462-0.089c0.937,0.046,3.232,0.602,3.294-0.443
		c0.052-0.867-1.145-0.888-2.219-0.888c-2.724,0-5.679,0.163-8.335,0c-1.791-0.109-3.515-0.007-5.444,0.089
		c-1.597,0.079-5.037,0.298-4.84-1.33c0.083-0.686,1.818-0.924,2.353-0.977c1.205-0.117,2.076,0.098,3.092,0
		c1.963-0.188,4.17-0.302,6.521-0.177c1.021,0.053,2.146,0.144,3.227,0c2.534-0.339,3.917-0.517,4.504-3.194
		c0.161-0.737,0.073-1.625,0.134-2.75c0.038-0.694,0.169-1.315,0.135-1.774c-0.103-1.418-0.985-2.853-1.814-3.371
		c-1.868-1.171-4.441-0.539-6.991-0.799c-0.632-0.063-2.752-0.144-2.756-0.887c-0.005-0.938,2-0.71,3.36-0.71
		c1.604,0,2.787,0.145,3.967,0c1.729-0.213,3.463-1.127,3.428-3.193c-0.054-3.253-4.005-3.172-6.453-3.017
		c-1.093,0.069-4.167,0.025-3.966-1.331c0.118-0.793,3.478-0.705,4.1-0.621c0.674,0.091,1.089,0.401,1.883,0.532
		c0.78,0.13,2.029,0.188,3.025,0.355c0.896,0.149,2.512,0.588,2.554-0.444c0.044-1.06-3.676-1.555-4.437-1.685
		c-1.291-0.223-4.437-0.146-4.437-1.775c0-1.352,1.554-1.1,2.823-1.241c1.247-0.141,2.143,0.144,3.429,0.266
		c1.048,0.099,2.591,0.153,2.555-0.887c-0.031-0.877-1.548-0.961-2.354-1.065c-1.143-0.147-2.213-0.009-3.159-0.089
		c-0.867-0.072-1.956-0.281-2.958-0.354c-1.12-0.083-2.325,0.111-2.688-0.709C33.698,39.169,34.542,38.638,36.216,38.805z
		 M31.645,61.25c-0.715,0.018-1.883-0.18-2.554-0.177c-1.652,0.006-3.09,0.266-4.705,0.442c-1.355,0.149-3.988,0.437-3.765,1.775
		c0.2,1.204,3.308,0.256,4.234,0.177c1.036-0.089,1.537-0.259,2.219-0.355c0.918-0.128,1.846,0.033,1.814,0.977
		c-0.024,0.734-0.828,1.067-1.411,1.153c-1.273,0.188-2.625-0.041-4.437,0.177c-0.948,0.115-3.135,0.694-2.958,1.864
		c0.139,0.913,1.796,0.526,2.219,0.443c1.64-0.324,2.814-0.706,4.167-0.977c1.438-0.286,3.238-0.17,5.042-0.089
		c1.956,0.09,3.967-0.101,5.646-0.088c0.617,0.005,1.384,0.151,1.815-0.089c0.6-0.333,1.269-1.727,1.209-2.751
		c-0.14-2.442-3.72-2.76-5.512-2.66C33.772,61.122,32.622,61.228,31.645,61.25z"/>
	<path fill-rule="evenodd" clip-rule="evenodd" d="M33.191,29.224c-0.013,1.927-0.013,3.002,1.075,3.637
		c1.105,0.646,3.202,0.48,4.84,0.621c1.315,0.114,4.019,0.344,3.227,2.839c-0.402,1.268-3.019,1.003-4.235,0.888
		c-0.876-0.083-2.581-0.491-3.294-0.888c-0.672-0.374-1.013-1.521-1.948-1.419c-1.552,0.168-0.604,3.667-1.277,5.411
		c-0.438,1.135-2.166,1.981-3.092,0.888c-0.742-0.875-0.576-2.372-0.673-4.081c-0.072-1.271-0.472-2.449-1.21-2.484
		c-1.139-0.053-1.012,1.505-1.748,2.04c-0.873,0.637-2.396,0.378-3.562,0.444c-1.545,0.089-4.104,0.997-3.966-1.509
		c0.066-1.197,0.962-1.415,2.084-1.597c0.941-0.151,2.062-0.376,2.958-0.443c1.848-0.139,3.343,0.076,3.764-1.951
		c0.16-0.77-0.075-1.966,0.135-2.396c0.484-0.993,3.07-0.445,4.504-0.532C31.599,28.641,32.831,28.556,33.191,29.224z"/>
	<path fill-rule="evenodd" clip-rule="evenodd" d="M38.3,52.201c0.823-0.052,2.794-0.307,3.025,0.887
		c0.399,2.063-2.051,1.628-3.294,1.508c-1.156-0.11-2.195,0.029-2.286-1.063C35.601,51.778,37.082,52.277,38.3,52.201z"/>
	<path fill-rule="evenodd" clip-rule="evenodd" d="M29.292,52.289c1.168-0.177,3.383-0.573,3.429,1.065
		c0.061,2.162-4.969,1.746-4.975,0.089C27.743,52.484,28.466,52.415,29.292,52.289z"/>
	<path fill-rule="evenodd" clip-rule="evenodd" d="M23.108,52.468c0.048-0.003,1.858-0.398,2.017,0.887
		c0.188,1.534-1.664,1.691-2.891,1.686c-1.094-0.006-3.089-0.06-3.16-1.242c-0.059-0.985,1.234-1.309,1.614-1.33
		C21.456,52.422,22.169,52.52,23.108,52.468z"/>
	<path fill-rule="evenodd" clip-rule="evenodd" d="M35.207,62.936c1.092-0.072,2.562-0.225,2.555,1.065
		c-0.01,1.784-2.896,0.892-4.033,0.798c-0.92-0.076-1.745,0.134-1.814-0.621c-0.083-0.885,0.638-0.769,1.411-0.887
		C34.086,63.175,34.433,62.987,35.207,62.936z"/>
</g>
</svg>
